<svg width="73" height="65" viewBox="0 0 73 65" fill="none" xmlns="http://www.w3.org/2000/svg">
<g clip-path="url(#clip0_146_3034)" filter="url(#filter0_d_146_3034)">
<path d="M19.917 36.5373V47.1666H57.2749C58.3422 47.1666 59.2075 46.3013 59.2075 45.234C59.2075 44.2956 59.2075 37.4738 59.2075 36.5373L39.5622 33.9603L19.917 36.5373Z" fill="#8B9BA9"/>
<path d="M55.3422 36.022V43.3015H19.917V47.1667H57.2749C58.3422 47.1667 59.2075 46.3014 59.2075 45.2341C59.2075 44.3448 59.2075 37.4096 59.2075 36.5373L55.3422 36.022Z" fill="#6C7A88"/>
<path d="M60.9474 11.0692H25.7157C24.6484 11.0692 23.7831 11.9345 23.7831 13.0018V19.0245H10.8946C9.08668 19.0245 7.52024 20.2778 7.12354 22.0417L5.66081 28.5463C5.28511 30.2171 5.09546 31.9245 5.09546 33.637V47.1664H23.7831C23.7831 46.8519 23.7831 42.072 23.7831 36.5371H60.9475C62.0148 36.5371 62.8801 35.6718 62.8801 34.6045V13.0018C62.88 11.9344 62.0149 11.0692 60.9474 11.0692Z" fill="#FF7E40"/>
<path d="M68.034 28.2375H62.8801V24.7695H65.4571C65.9909 24.7695 66.4234 24.3368 66.4234 23.8032C66.4234 23.2695 65.9909 22.8369 65.4571 22.8369H62.8801V19.3689H66.7455C67.2793 19.3689 67.7118 18.9362 67.7118 18.4026C67.7118 17.8689 67.2793 17.4363 66.7455 17.4363H62.8801V13.9681H68.034C68.5678 13.9681 69.0003 13.5355 69.0003 13.0018C69.0003 12.4682 68.5678 12.0355 68.034 12.0355H62.6195C62.2852 11.4584 61.6625 11.0692 60.9475 11.0692H59.0149V32.672H23.7831C23.7831 25.8735 23.7831 19.2079 23.7831 19.0243H19.9179V36.5372H17.019C14.2018 36.5372 11.639 37.641 9.735 39.4361H5.09546V47.1666H23.7831C23.7831 46.9044 23.7831 42.1025 23.7831 36.5372H35.6949H60.9475C61.6625 36.5372 62.2852 36.148 62.6195 35.5709H66.7455C67.2793 35.5709 67.7118 35.1383 67.7118 34.6046C67.7118 34.071 67.2793 33.6383 66.7455 33.6383H62.8801V30.1702H68.034C68.5678 30.1702 69.0003 29.7376 69.0003 29.2039C69.0003 28.6702 68.5678 28.2375 68.034 28.2375Z" fill="#FF6344"/>
<path d="M4.9663 47.1664H12.0391V43.3011H4.9663C4.43265 43.3011 4 43.7338 4 44.2675V46.2001C4 46.7338 4.43265 47.1664 4.9663 47.1664Z" fill="#8B9BA9"/>
<path d="M19.9179 22.8895H10.6641L8.82666 31.0602H19.9179V22.8895Z" fill="#9DC6FB"/>
<path d="M16.2832 27.195H9.69582L8.82666 31.0602H19.9179V22.8895H16.2832V27.195Z" fill="#80B4FB"/>
<path d="M49.8667 53.9305C53.6024 53.9305 56.6308 50.9021 56.6308 47.1663C56.6308 43.4306 53.6024 40.4022 49.8667 40.4022C46.1309 40.4022 43.1025 43.4306 43.1025 47.1663C43.1025 50.9021 46.1309 53.9305 49.8667 53.9305Z" fill="#4D5967"/>
<path d="M51.2499 40.5449C50.4571 42.0097 50.6788 43.8784 51.917 45.1164L47.8173 49.2162C46.5792 47.978 44.7105 47.7561 43.2456 48.5491C43.8857 51.6177 46.6112 53.9304 49.8671 53.9304C53.5969 53.9304 56.6312 50.8961 56.6312 47.1663C56.6311 43.9104 54.3185 41.185 51.2499 40.5449Z" fill="#35404A"/>
<path d="M49.8664 50.0654C51.4675 50.0654 52.7654 48.7675 52.7654 47.1665C52.7654 45.5655 51.4675 44.2676 49.8664 44.2676C48.2654 44.2676 46.9675 45.5655 46.9675 47.1665C46.9675 48.7675 48.2654 50.0654 49.8664 50.0654Z" fill="#FFF9EB"/>
<path d="M17.0188 53.9305C20.7545 53.9305 23.7829 50.9021 23.7829 47.1663C23.7829 43.4306 20.7545 40.4022 17.0188 40.4022C13.283 40.4022 10.2546 43.4306 10.2546 47.1663C10.2546 50.9021 13.283 53.9305 17.0188 53.9305Z" fill="#4D5967"/>
<path d="M18.402 40.5449C17.6092 42.0097 17.8309 43.8784 19.069 45.1164L14.9693 49.2162C13.7313 47.978 11.8626 47.7561 10.3977 48.5491C11.0378 51.6177 13.7633 53.9304 17.0192 53.9304C20.749 53.9304 23.7833 50.8961 23.7833 47.1663C23.7833 43.9104 21.4708 41.185 18.402 40.5449Z" fill="#35404A"/>
<path d="M17.0185 50.0654C18.6196 50.0654 19.9175 48.7675 19.9175 47.1665C19.9175 45.5655 18.6196 44.2676 17.0185 44.2676C15.4175 44.2676 14.1196 45.5655 14.1196 47.1665C14.1196 48.7675 15.4175 50.0654 17.0185 50.0654Z" fill="#FFF9EB"/>
<path d="M33.5606 21.8712V22.8375H34.7845C35.3182 22.8375 35.7505 23.2699 35.7505 23.8037C35.7505 24.3374 35.3182 24.77 34.7845 24.77H33.5606V26.7023C33.5606 27.2361 33.128 27.6686 32.5945 27.6686C32.0609 27.6686 31.6284 27.2362 31.6284 26.7023V20.9051C31.6284 20.3715 32.0609 19.9391 32.5945 19.9391H35.5574C36.0911 19.9391 36.5235 20.3715 36.5235 20.9051C36.5235 21.4389 36.0911 21.8714 35.5574 21.8714H33.5606V21.8712Z" fill="#FFF9EB"/>
<path d="M42.7694 26.0216C43.1449 26.4004 43.1424 27.0123 42.7636 27.388C42.575 27.5747 42.3292 27.6681 42.0832 27.6681C41.8346 27.6681 41.586 27.5727 41.3971 27.3822L39.7645 25.7357H39.2491V26.7018C39.2491 27.2356 38.8165 27.6681 38.2829 27.6681C37.7494 27.6681 37.3169 27.2357 37.3169 26.7018V20.9046C37.3169 20.3709 37.7494 19.9385 38.2829 19.9385H40.1672C41.7565 19.9385 43.0495 21.2389 43.0495 22.8371C43.0495 23.7799 42.5992 24.6188 41.9036 25.1486L42.7694 26.0216ZM41.117 22.8371C41.117 22.3042 40.6908 21.8708 40.1672 21.8708H39.2491V23.8031H40.1672C40.6908 23.8031 41.117 23.3697 41.117 22.8371Z" fill="#FFF9EB"/>
<path d="M49.0383 26.7016C49.0383 27.2354 48.606 27.6679 48.0723 27.6679H45.1094C44.5758 27.6679 44.1433 27.2355 44.1433 26.7016V20.9044C44.1433 20.3707 44.5758 19.9384 45.1094 19.9384H48.0723C48.606 19.9384 49.0383 20.3707 49.0383 20.9044C49.0383 21.4382 48.606 21.8707 48.0723 21.8707H46.0755V22.837H47.2994C47.833 22.837 48.2654 23.2694 48.2654 23.8032C48.2654 24.337 47.833 24.7695 47.2994 24.7695H46.0755V25.7357H48.0723C48.606 25.7355 49.0383 26.1679 49.0383 26.7016Z" fill="#FFF9EB"/>
<path d="M55.0339 26.7016C55.0339 27.2354 54.6016 27.6679 54.0679 27.6679H51.105C50.5714 27.6679 50.1389 27.2355 50.1389 26.7016V20.9044C50.1389 20.3707 50.5714 19.9384 51.105 19.9384H54.0679C54.6016 19.9384 55.0339 20.3707 55.0339 20.9044C55.0339 21.4382 54.6016 21.8707 54.0679 21.8707H52.0711V22.837H53.295C53.8286 22.837 54.261 23.2694 54.261 23.8032C54.261 24.337 53.8286 24.7695 53.295 24.7695H52.0711V25.7357H54.0679C54.6016 25.7355 55.0339 26.1679 55.0339 26.7016Z" fill="#FFF9EB"/>
</g>
<defs>
<filter id="filter0_d_146_3034" x="0" y="0" width="73" height="73" filterUnits="userSpaceOnUse" color-interpolation-filters="sRGB">
<feFlood flood-opacity="0" result="BackgroundImageFix"/>
<feColorMatrix in="SourceAlpha" type="matrix" values="0 0 0 0 0 0 0 0 0 0 0 0 0 0 0 0 0 0 127 0" result="hardAlpha"/>
<feOffset dy="4"/>
<feGaussianBlur stdDeviation="2"/>
<feComposite in2="hardAlpha" operator="out"/>
<feColorMatrix type="matrix" values="0 0 0 0 0 0 0 0 0 0 0 0 0 0 0 0 0 0 0.25 0"/>
<feBlend mode="normal" in2="BackgroundImageFix" result="effect1_dropShadow_146_3034"/>
<feBlend mode="normal" in="SourceGraphic" in2="effect1_dropShadow_146_3034" result="shape"/>
</filter>
<clipPath id="clip0_146_3034">
<rect width="65" height="65" fill="white" transform="translate(4)"/>
</clipPath>
</defs>
</svg>
